<?xml version="1.0" encoding="UTF-8" standalone="no"?>
<!-- Created with Inkscape (http://www.inkscape.org/) -->

<svg
   width="512.0px"
   height="512.0px"
   viewBox="0 0 512.0 512.0"
   version="1.1"
   id="SVGRoot"
   sodipodi:docname="InfoIcon.svg"
   inkscape:version="1.2.2 (732a01da63, 2022-12-09)"
   xmlns:inkscape="http://www.inkscape.org/namespaces/inkscape"
   xmlns:sodipodi="http://sodipodi.sourceforge.net/DTD/sodipodi-0.dtd"
   xmlns="http://www.w3.org/2000/svg"
   xmlns:svg="http://www.w3.org/2000/svg">
  <sodipodi:namedview
     id="namedview189"
     pagecolor="#ffffff"
     bordercolor="#000000"
     borderopacity="0.25"
     inkscape:showpageshadow="2"
     inkscape:pageopacity="0.0"
     inkscape:pagecheckerboard="0"
     inkscape:deskcolor="#d1d1d1"
     inkscape:document-units="px"
     showgrid="true"
     inkscape:zoom="0.70710678"
     inkscape:cx="-35.355339"
     inkscape:cy="420.02143"
     inkscape:window-width="1920"
     inkscape:window-height="1009"
     inkscape:window-x="-8"
     inkscape:window-y="-8"
     inkscape:window-maximized="1"
     inkscape:current-layer="layer2"
     showguides="true">
    <inkscape:grid
       type="xygrid"
       id="grid312" />
    <sodipodi:guide
       position="0,512"
       orientation="0.70710678,0.70710678"
       id="guide319"
       inkscape:locked="false" />
    <sodipodi:guide
       position="0,0"
       orientation="-0.70710678,0.70710678"
       id="guide382"
       inkscape:locked="false" />
    <sodipodi:guide
       position="256,256"
       orientation="0,-1"
       id="guide384"
       inkscape:locked="false" />
    <sodipodi:guide
       position="256,256"
       orientation="1,0"
       id="guide386"
       inkscape:locked="false" />
  </sodipodi:namedview>
  <defs
     id="defs184">
    <rect
       x="195.86858"
       y="130.10765"
       width="304.05592"
       height="349.31075"
       id="rect945" />
  </defs>
  <g
     inkscape:groupmode="layer"
     id="layer2"
     inkscape:label="FG"
     style="fill:#ffffff">
    <path
       id="path770"
       style="fill:#ffffff;fill-rule:evenodd;stroke-width:20.8812;stroke-linecap:round;stroke-linejoin:round;paint-order:markers stroke fill"
       d="M 256,22 C 126.76537,22 22,126.76537 22,256 c 0,129.23463 104.76537,234 234,234 46.98098,0 89.64529,-15.6001 127.38401,-37.6784 20.10381,-11.76134 74.62696,23.01337 95.06226,-3.24533 7.71862,-9.91819 7.01372,-41.03343 3.467,-65.49119 -3.23743,-22.32487 -9.32719,-38.07065 -5.40654,-49.08268 C 485.2433,309.9638 490,283.5374 490,256 490,126.76537 385.23463,22 256,22 Z m 0,20 c 118.18894,0 214,95.81106 214,214 0,20.65838 -2.87013,40.64967 -8.3895,59.53194 -6.22783,21.30598 -2.98796,43.60896 0.64945,68.39038 3.12254,21.27361 6.89942,44.16549 -1.09995,52.81174 -8.16121,8.82119 -64.20556,-21.12072 -82.89791,-7.07523 C 344.48256,455.04089 301.45697,470 256,470 137.81106,470 42,374.18894 42,256 42,137.81106 137.81106,42 256,42 Z"
       sodipodi:nodetypes="ssssssssssssssssss" />
    <path
       id="path1019"
       style="font-weight:bold;font-size:400px;line-height:0;font-family:Goudy;-inkscape-font-specification:Goudy;white-space:pre;shape-inside:url(#rect945);fill:#ffffff;fill-rule:evenodd;stroke-width:17.9637;stroke-linecap:round;stroke-linejoin:round;paint-order:markers stroke fill"
       d="m 254.42773,84.158203 c -11.14082,0.221167 -22.3214,5.109393 -29.41992,13.814453 -3.2741,4.199034 -5.40745,9.168294 -6.99818,14.214854 -2.00468,7.1005 -0.85948,14.98253 3.00104,21.26138 2.60506,4.359 5.98002,8.19973 9.47333,11.86167 4.84038,4.86821 10.82548,8.98371 17.69116,10.21403 7.21513,1.27929 14.92858,-0.87744 20.45621,-5.68397 4.42425,-3.58566 7.63432,-8.34925 11.03797,-12.84669 2.61217,-2.93283 5.58293,-5.85922 6.59433,-9.7869 0.95739,-3.66778 0.50612,-7.48851 0.7486,-11.22952 0.1435,-4.93333 -0.39456,-10.16839 -3.24075,-14.35348 -3.13528,-4.774469 -7.20761,-8.959588 -11.94918,-12.150267 -5.11997,-3.385877 -11.20764,-5.518984 -17.39461,-5.31556 z m -50.13476,80.292967 c -4.08059,0.15838 -8.44887,0.54902 -11.83594,3.07031 -3.33013,2.55739 -3.1509,6.38272 -0.76447,9.72137 2.12844,3.33606 6.35526,3.08526 10.03596,4.05988 6.06065,1.49925 12.16824,3.01589 17.86571,5.6244 9.78369,4.55989 10.73019,15.02961 10.65755,24.7506 -0.0134,56.25181 3.3e-4,112.50372 -0.0301,168.75546 -0.0354,5.3535 -0.36859,10.84152 -2.31642,15.88405 -1.70765,4.57428 -5.37473,8.25753 -9.76882,10.31084 -2.25703,0.99541 -4.62371,1.76738 -6.7421,3.05977 -2.91584,1.7146 -5.7366,4.23238 -6.51931,7.65787 -0.85082,3.42015 0.51194,7.47599 3.72372,9.17316 3.09874,1.77245 6.78985,1.30845 10.19893,1.17414 8.72393,-0.3694 17.44303,-0.85746 26.17109,-1.12466 1.96238,-0.0453 4.12787,-0.0859 6.16836,-0.10195 14.58076,-0.0807 29.10658,0.60992 43.66848,1.06488 4.6854,0.1084 9.37343,0.38315 14.06012,0.24866 3.56994,-0.19366 7.33523,-0.90012 10.20656,-3.16862 3.30786,-2.59767 4.41777,-7.65262 2.26323,-11.31441 -1.8222,-3.04608 -5.26536,-4.64755 -8.59267,-5.47063 -3.06926,-0.79866 -6.40321,-1.20916 -9.35611,-2.02941 -5.2197,-1.39619 -10.43652,-3.40267 -14.60991,-6.92324 -2.94879,-2.5886 -4.41098,-6.42606 -5.26256,-10.16287 -1.44844,-6.74602 -0.99752,-13.68961 -1.0428,-20.53811 -0.037,-28.9134 -0.005,-57.82711 -0.0139,-86.74063 0.009,-25.61559 -0.005,-51.23185 0.0391,-76.84701 1.03537,-11.40337 5.82922,-20.73897 16.5356,-23.62538 2.60625,-0.82813 5.41174,-1.26496 7.75285,-2.74988 3.70155,-2.63109 3.68379,-5.09568 1.69323,-9.06256 -1.32939,-2.49169 -4.0917,-3.92897 -6.84617,-4.13099 -5.52707,-0.84915 -11.13974,-0.52756 -16.70732,-0.46525 -10.36987,0.23425 -20.72957,0.77827 -31.09673,1.10138 -4.48277,0.14148 -9.07002,0.24697 -13.59299,0.0791 -11.9097,-0.27379 -23.9559,-1.30424 -35.94216,-1.28024 z"
       sodipodi:nodetypes="cccccccccccccsccccccccccccccccccccccccccccccccss" />
  </g>
</svg>
