<?xml version="1.0" encoding="UTF-8" standalone="no"?>
<!-- Created with Inkscape (http://www.inkscape.org/) -->

<svg
   width="512.0px"
   height="512.0px"
   viewBox="0 0 512.0 512.0"
   version="1.1"
   id="SVGRoot"
   sodipodi:docname="PlusIcon.svg"
   inkscape:version="1.2.2 (732a01da63, 2022-12-09)"
   xmlns:inkscape="http://www.inkscape.org/namespaces/inkscape"
   xmlns:sodipodi="http://sodipodi.sourceforge.net/DTD/sodipodi-0.dtd"
   xmlns="http://www.w3.org/2000/svg"
   xmlns:svg="http://www.w3.org/2000/svg">
  <sodipodi:namedview
     id="namedview187"
     pagecolor="#ffffff"
     bordercolor="#000000"
     borderopacity="0.25"
     inkscape:showpageshadow="2"
     inkscape:pageopacity="0.0"
     inkscape:pagecheckerboard="0"
     inkscape:deskcolor="#d1d1d1"
     inkscape:document-units="px"
     showgrid="true"
     inkscape:zoom="1.6819304"
     inkscape:cx="173.01548"
     inkscape:cy="265.1715"
     inkscape:window-width="1920"
     inkscape:window-height="1009"
     inkscape:window-x="-8"
     inkscape:window-y="-8"
     inkscape:window-maximized="1"
     inkscape:current-layer="layer2"
     showguides="true">
    <inkscape:grid
       type="xygrid"
       id="grid310" />
    <sodipodi:guide
       position="0,512"
       orientation="0.70710678,0.70710678"
       id="guide317"
       inkscape:locked="false" />
    <sodipodi:guide
       position="0,0"
       orientation="-0.70710678,0.70710678"
       id="guide380"
       inkscape:locked="false" />
    <sodipodi:guide
       position="256,256"
       orientation="0,-1"
       id="guide382"
       inkscape:locked="false" />
    <sodipodi:guide
       position="256,256"
       orientation="1,0"
       id="guide384"
       inkscape:locked="false" />
  </sodipodi:namedview>
  <defs
     id="defs182" />
  <g
     inkscape:groupmode="layer"
     id="layer2"
     inkscape:label="FG">
    <path
       id="path1218"
       style="opacity:1;fill:#ffffff;fill-rule:evenodd;stroke-width:35.5565;stroke-linecap:round;stroke-linejoin:round;paint-order:markers stroke fill"
       d="M 256 22 A 234 234 0 0 0 22 256 A 234 234 0 0 0 256 490 A 234 234 0 0 0 490 256 A 234 234 0 0 0 256 22 z M 255.16992 26.011719 C 265.48092 25.964659 275.7196 26.623992 285.95117 27.960938 C 294.30657 29.05871 302.70149 30.635283 310.9375 32.660156 C 319.53796 34.778334 328.17179 37.430123 336.52539 40.556641 C 347.83093 44.782824 358.93492 49.977593 369.32812 55.859375 C 371.8578 57.299684 374.48664 58.846672 376.97852 60.386719 C 388.89186 67.756316 400.20863 76.281843 410.53125 85.65625 C 427.11581 100.68381 441.55282 118.25822 453.03906 137.37305 C 457.26269 144.371 461.14381 151.69851 464.56641 159.04688 C 472.90838 177.00109 478.92181 196.03681 482.40625 215.52539 C 482.77097 217.52107 483.10747 219.64435 483.41016 221.57227 C 485.90281 238.07055 486.5948 254.8374 485.45508 271.48438 C 485.2676 274.26482 485.03728 277.03729 484.73633 279.85742 C 484.49782 282.1005 484.2519 284.17896 483.95898 286.39648 C 482.60025 296.64246 480.51048 306.89699 477.79688 316.80078 C 474.30046 329.54591 469.70711 341.98987 464.07812 353.94727 C 459.72702 363.20007 454.69671 372.25077 449.19336 380.76758 C 448.57714 381.70452 447.87366 382.78522 447.3125 383.63281 C 435.26613 401.68737 420.65259 418.0269 404.03711 431.99219 C 380.78712 451.57938 353.60077 466.46285 324.58008 475.51562 C 320.96454 476.64286 317.35021 477.68195 313.64648 478.63281 C 310.89816 479.34507 308.028 480.0337 305.18359 480.66602 C 303.29633 481.06874 301.27812 481.47819 299.46289 481.83398 C 288.61218 483.92542 277.60837 485.22249 266.57031 485.73438 C 265.15108 485.8128 263.66678 485.84274 262.16406 485.89844 C 258.03515 486.00519 253.66872 486.01717 249.44922 485.88477 C 248.42826 485.85905 247.07828 485.80393 246.08008 485.76953 C 242.71685 485.61502 239.35586 485.4023 236.00195 485.10742 C 219.63231 483.68253 203.32679 480.46657 187.70312 475.60352 C 179.90921 473.17415 172.18412 470.31972 164.75195 467.10352 C 157.46464 463.95277 150.1509 460.3298 143.16211 456.39258 C 141.92446 455.70646 140.57491 454.91272 139.42969 454.25391 C 122.12166 444.063 106.14825 431.61029 92.0625 417.29102 C 72.701121 397.6206 56.923647 374.43482 45.751953 349.19531 C 40.769332 337.97716 36.685176 326.25943 33.568359 314.46094 C 33.341831 313.63716 33.126719 312.70478 32.890625 311.7793 C 30.880867 303.72156 29.317962 295.68938 28.185547 287.47656 C 27.87921 285.21946 27.617688 283.11816 27.373047 280.87305 C 27.112346 278.53274 26.884935 276.07605 26.708984 273.79883 C 26.100558 265.93254 25.897305 258.0357 26.09375 250.14844 C 26.123971 249.01526 26.171208 247.71637 26.205078 246.6875 C 26.908808 229.61762 29.499851 212.62576 33.951172 196.13086 C 41.347334 168.65801 53.903949 142.58717 70.777344 119.67969 C 87.159162 97.404508 107.60369 78.132945 130.80078 63.085938 C 132.13111 62.202162 133.61194 61.294826 134.88867 60.492188 C 138.67502 58.158211 142.51793 55.916258 146.42969 53.798828 C 171.75943 40.062452 199.69231 31.154263 228.29883 27.695312 C 229.97815 27.492167 231.79566 27.292073 233.39453 27.132812 C 238.51609 26.616481 243.65656 26.323636 248.79883 26.113281 C 250.92282 26.079735 253.04593 26.045269 255.16992 26.011719 z M 255.97852 38 L 255.88281 38.001953 C 245.34586 38.060365 234.80811 38.781507 224.38281 40.330078 C 193.79594 44.787789 164.19951 55.871546 138.20508 72.595703 C 112.53498 89.053009 90.40399 110.98605 73.701172 136.49609 C 56.991293 161.95801 45.707539 190.9608 40.849609 221.02734 C 36.083628 250.18961 37.363797 280.31629 44.558594 308.97461 C 52.080156 339.08251 66.138 367.53592 85.492188 391.79492 C 104.40731 415.58462 128.37806 435.32661 155.34375 449.3457 C 182.14194 463.32103 211.87884 471.61313 242.04102 473.5293 C 271.52818 475.44614 301.38811 471.24653 329.2168 461.31641 C 351.90265 453.22992 373.22349 441.3481 392.04297 426.32031 C 411.23173 410.98698 427.8094 392.39662 440.82422 371.56445 C 454.95122 348.98234 464.89191 323.79134 469.96289 297.64062 C 474.72219 273.15703 475.28404 247.84848 471.50977 223.18945 C 466.26657 188.47364 452.43271 155.10378 431.61133 126.83789 C 411.00288 98.75938 383.53097 75.772825 352.27344 60.412109 C 322.46554 45.714459 289.25898 37.98653 256.02539 38 L 255.97852 38 z M 256 42 A 214 214 0 0 1 470 256 A 214 214 0 0 1 256 470 A 214 214 0 0 1 42 256 A 214 214 0 0 1 256 42 z " />
    <path
       id="rect1295"
       style="opacity:1;fill:#ffffff;fill-rule:evenodd;stroke-width:24.6143;stroke-linecap:round;stroke-linejoin:round;paint-order:markers stroke fill"
       d="M 256 57 C 242.21926 57 231.125 68.094264 231.125 81.875 L 231.125 231.125 L 81.875 231.125 C 68.094264 231.125 57 242.21926 57 256 C 57 269.78074 68.094264 280.875 81.875 280.875 L 231.125 280.875 L 231.125 430.125 C 231.125 443.90574 242.21926 455 256 455 C 269.78074 455 280.875 443.90574 280.875 430.125 L 280.875 280.875 L 430.125 280.875 C 443.90574 280.875 455 269.78074 455 256 C 455 242.21926 443.90574 231.125 430.125 231.125 L 280.875 231.125 L 280.875 81.875 C 280.875 68.094264 269.78074 57 256 57 z " />
  </g>
</svg>
