<?xml version="1.0" encoding="UTF-8" standalone="no"?>
<!-- Created with Inkscape (http://www.inkscape.org/) -->

<svg
   width="512.0px"
   height="512.0px"
   viewBox="0 0 512.0 512.0"
   version="1.1"
   id="SVGRoot"
   sodipodi:docname="ResetIcon.svg"
   inkscape:version="1.2.2 (732a01da63, 2022-12-09)"
   xmlns:inkscape="http://www.inkscape.org/namespaces/inkscape"
   xmlns:sodipodi="http://sodipodi.sourceforge.net/DTD/sodipodi-0.dtd"
   xmlns="http://www.w3.org/2000/svg"
   xmlns:svg="http://www.w3.org/2000/svg">
  <sodipodi:namedview
     id="namedview3426"
     pagecolor="#ffffff"
     bordercolor="#000000"
     borderopacity="0.25"
     inkscape:showpageshadow="2"
     inkscape:pageopacity="0.0"
     inkscape:pagecheckerboard="0"
     inkscape:deskcolor="#d1d1d1"
     inkscape:document-units="px"
     showgrid="true"
     inkscape:zoom="1.4142136"
     inkscape:cx="199.40411"
     inkscape:cy="236.17366"
     inkscape:window-width="1920"
     inkscape:window-height="1009"
     inkscape:window-x="-8"
     inkscape:window-y="-8"
     inkscape:window-maximized="1"
     inkscape:current-layer="layer4"
     showguides="true">
    <inkscape:grid
       type="xygrid"
       id="grid3549" />
    <sodipodi:guide
       position="0,512"
       orientation="0.70710678,0.70710678"
       id="guide3581"
       inkscape:locked="false" />
    <sodipodi:guide
       position="0,0"
       orientation="-0.70710678,0.70710678"
       id="guide3583"
       inkscape:locked="false" />
    <sodipodi:guide
       position="256,256"
       orientation="1,0"
       id="guide3585"
       inkscape:locked="false" />
    <sodipodi:guide
       position="256,256"
       orientation="0,-1"
       id="guide3587"
       inkscape:locked="false" />
  </sodipodi:namedview>
  <defs
     id="defs3421">
    <rect
       x="256"
       y="256"
       width="61.499996"
       height="86.499998"
       id="rect1529" />
    <inkscape:path-effect
       effect="copy_rotate"
       starting_point="0,0"
       origin="256,256"
       id="path-effect1473"
       is_visible="true"
       lpeversion="1.2"
       lpesatellites=""
       method="normal"
       num_copies="2"
       starting_angle="0"
       rotation_angle="180"
       gap="0"
       copies_to_360="true"
       mirror_copies="false"
       split_items="false"
       link_styles="false" />
    <inkscape:path-effect
       effect="copy_rotate"
       starting_point="0,0"
       origin="256,256"
       id="path-effect1465"
       is_visible="true"
       lpeversion="1.2"
       lpesatellites=""
       method="normal"
       num_copies="2"
       starting_angle="0"
       rotation_angle="180"
       gap="0"
       copies_to_360="true"
       mirror_copies="false"
       split_items="false"
       link_styles="false" />
    <inkscape:path-effect
       effect="clone_original"
       linkeditem=""
       id="path-effect1463"
       is_visible="true"
       lpeversion="1"
       method="d"
       attributes=""
       css_properties=""
       allow_transforms="true" />
    <inkscape:path-effect
       effect="bend_path"
       id="path-effect1119"
       is_visible="true"
       lpeversion="1"
       bendpath="M 256.39641,45.68664 C 230.91214,45.667166 205.6368,50.28247 181.80244,59.303106 100.33124,90.503913 46.580688,168.76298 46.702595,256.00424"
       prop_scale="1"
       scale_y_rel="true"
       vertical="false"
       hide_knot="false"
       bendpath-nodetypes="csc" />
  </defs>
  <g
     inkscape:groupmode="layer"
     id="layer4"
     inkscape:label="FG">
    <path
       style="fill:#ffffff;fill-rule:evenodd;stroke-width:0.315719;stroke-linecap:round;stroke-linejoin:round;paint-order:markers stroke fill"
       transform="matrix(0.88493229,-0.5109159,0.5109159,0.88493229,-101.33714,160.2518)"
       d="m 445.53125,146.60938 c -4.40389,0.32371 -8.55822,2.96405 -10.80469,6.77148 -11.52135,16.44162 -23.0431,32.88258 -34.56445,49.32422 -17.09736,-11.96947 -34.1648,-23.98234 -51.30273,-35.89258 -5.3357,-3.25884 -12.89142,-2.05338 -16.9375,2.71875 -3.99696,4.42812 -4.51328,11.59779 -1.07813,16.5 2.11736,3.10471 5.5678,4.83751 8.50586,7.03516 19.06071,13.34624 38.09986,26.72281 57.1875,40.02929 5.46393,3.42579 13.38874,2.11637 17.33594,-3.02539 1.89073,-2.39147 3.4972,-4.99064 5.30273,-7.44531 12.9774,-18.53307 25.98718,-37.04484 38.92383,-55.60547 3.37172,-5.38694 2.14493,-13.12481 -2.78125,-17.16015 -2.19352,-1.88591 -5.00243,-3.0503 -7.89063,-3.24415 -0.63446,-0.0517 -1.26735,-0.0521 -1.89648,-0.006 z M 66.46875,365.39062 c 4.40389,-0.32371 8.55822,-2.96405 10.80469,-6.77148 11.52135,-16.44162 23.0431,-32.88258 34.56445,-49.32422 17.09736,11.96947 34.1648,23.98234 51.30273,35.89258 5.3357,3.25884 12.89142,2.05338 16.9375,-2.71875 3.99696,-4.42812 4.51328,-11.59779 1.07813,-16.5 -2.11736,-3.10471 -5.5678,-4.83751 -8.50586,-7.03516 -19.06071,-13.34624 -38.09986,-26.72281 -57.1875,-40.02929 -5.46393,-3.42579 -13.38874,-2.11637 -17.33594,3.02539 -1.89073,2.39147 -3.4972,4.99064 -5.30273,7.44531 -12.9774,18.53307 -25.98718,37.04484 -38.92383,55.60547 -3.37172,5.38694 -2.14493,13.12481 2.78125,17.16015 2.19352,1.88591 5.00243,3.0503 7.89063,3.24415 0.63446,0.0517 1.26735,0.0521 1.89648,0.006 z"
       id="path1469" />
    <path
       style="fill:#ffffff;fill-rule:evenodd;stroke-width:0.315719;stroke-linecap:round;stroke-linejoin:round;paint-order:markers stroke fill"
       transform="matrix(0.88989987,-0.51378393,0.51378393,0.88989987,-103.34305,159.71432)"
       d="m 252.06641,76.78125 c -8.15416,0.374866 -16.2587,1.437601 -24.32813,2.628906 -15.45037,2.413956 -30.73219,6.450628 -44.96094,13.017578 -36.08479,16.274916 -66.65405,44.710186 -85.019528,79.824216 -12.494417,23.7307 -19.703404,50.26734 -20.677734,77.08008 0.09352,6.28281 5.1744,12.10398 11.433594,12.9043 6.148773,0.96858 12.730018,-2.7971 14.824218,-8.69727 1.21886,-3.3514 0.80689,-6.97801 1.27149,-10.45703 2.81502,-32.14437 15.96685,-63.38435 37.39648,-87.55664 7.93398,-8.97386 16.91824,-17.01695 26.70703,-23.91992 1.41868,-0.98931 3.02141,-2.09 4.54102,-3.07813 3.61079,-2.32511 7.27738,-4.58512 11.10156,-6.54101 2.15316,-1.05033 4.22252,-2.2654 6.41406,-3.24024 14.92987,-7.125 31.07181,-11.6453 47.5,-13.52343 1.18124,-0.13081 2.61727,-0.28206 3.89844,-0.39454 3.55813,-0.32009 7.17546,-0.51238 10.67383,-0.58007 5.96183,-0.11004 11.8246,0.0946 17.76562,0.64453 1.81579,0.17888 3.57409,0.37102 5.31836,0.60547 3.94134,0.50647 8.09377,1.22663 12.08008,2.07617 28.01907,6.00376 54.41389,19.87168 74.82617,40.04101 8.25451,8.12211 15.54276,17.2067 21.79883,26.94727 2.1666,3.28383 5.87402,5.41012 9.77148,5.78906 4.9264,0.574 10.10152,-1.75685 12.77344,-5.96875 2.56977,-3.82747 2.99928,-9.006 0.92578,-13.14843 -1.29049,-2.65781 -3.14663,-4.98266 -4.75586,-7.44727 C 388.87992,132.97326 369.98804,115.20276 348.12305,102.3457 323.64724,87.841498 295.71963,79.193104 267.31836,77.425781 262.24409,77.044121 257.15894,76.667369 252.06641,76.78125 Z m 7.86718,358.4375 c 8.15416,-0.37487 16.2587,-1.4376 24.32813,-2.62891 15.45037,-2.41395 30.73219,-6.45062 44.96094,-13.01757 36.08479,-16.27492 66.65405,-44.71019 85.01953,-79.82422 12.49441,-23.7307 19.7034,-50.26734 20.67773,-77.08008 -0.0935,-6.28281 -5.1744,-12.10398 -11.43359,-12.9043 -6.14878,-0.96858 -12.73002,2.7971 -14.82422,8.69727 -1.21886,3.3514 -0.80689,6.97801 -1.27149,10.45703 -2.81502,32.14437 -15.96685,63.38435 -37.39648,87.55664 -7.93398,8.97386 -16.91824,17.01695 -26.70703,23.91992 -1.41868,0.98931 -3.02141,2.09 -4.54102,3.07813 -3.61079,2.32511 -7.27738,4.58512 -11.10156,6.54101 -2.15316,1.05033 -4.22252,2.2654 -6.41406,3.24024 -14.92987,7.125 -31.07181,11.6453 -47.5,13.52343 -1.18124,0.13081 -2.61727,0.28206 -3.89844,0.39454 -3.55813,0.32009 -7.17546,0.51238 -10.67383,0.58007 -5.96183,0.11004 -11.8246,-0.0946 -17.76562,-0.64453 -1.81579,-0.17888 -3.57409,-0.37102 -5.31836,-0.60547 -3.94134,-0.50647 -8.09377,-1.22663 -12.08008,-2.07617 -28.01907,-6.00376 -54.41389,-19.87168 -74.82617,-40.04101 -8.25451,-8.12211 -15.54276,-17.2067 -21.79883,-26.94727 -2.1666,-3.28383 -5.87402,-5.41012 -9.77148,-5.78906 -4.9264,-0.574 -10.10152,1.75685 -12.77344,5.96875 -2.56977,3.82747 -2.99928,9.006 -0.92578,13.14843 1.29049,2.65781 3.14663,4.98266 4.75586,7.44727 14.46578,20.81385 33.35766,38.58435 55.22265,51.44141 24.47581,14.5042 52.40342,23.1526 80.80469,24.91992 5.07427,0.38166 10.15942,0.75841 15.25195,0.64453 z"
       id="rect1117" />
  </g>
</svg>
