<?xml version="1.0" encoding="UTF-8" standalone="no"?>
<!-- Created with Inkscape (http://www.inkscape.org/) -->

<svg
   width="512.0px"
   height="512.0px"
   viewBox="0 0 512.0 512.0"
   version="1.1"
   id="SVGRoot"
   sodipodi:docname="SettingsIcon.svg"
   inkscape:version="1.2.2 (732a01da63, 2022-12-09)"
   xmlns:inkscape="http://www.inkscape.org/namespaces/inkscape"
   xmlns:sodipodi="http://sodipodi.sourceforge.net/DTD/sodipodi-0.dtd"
   xmlns="http://www.w3.org/2000/svg"
   xmlns:svg="http://www.w3.org/2000/svg">
  <sodipodi:namedview
     id="namedview187"
     pagecolor="#ffffff"
     bordercolor="#000000"
     borderopacity="0.25"
     inkscape:showpageshadow="2"
     inkscape:pageopacity="0.0"
     inkscape:pagecheckerboard="0"
     inkscape:deskcolor="#d1d1d1"
     inkscape:document-units="px"
     showgrid="true"
     inkscape:zoom="1.4142136"
     inkscape:cx="220.61731"
     inkscape:cy="284.25692"
     inkscape:window-width="1920"
     inkscape:window-height="1009"
     inkscape:window-x="-8"
     inkscape:window-y="-8"
     inkscape:window-maximized="1"
     inkscape:current-layer="layer2"
     showguides="true">
    <inkscape:grid
       type="xygrid"
       id="grid310" />
    <sodipodi:guide
       position="512,512"
       orientation="0.70710678,-0.70710678"
       id="guide500"
       inkscape:locked="false" />
    <sodipodi:guide
       position="0,512"
       orientation="0.70710678,0.70710678"
       id="guide563"
       inkscape:locked="false" />
    <sodipodi:guide
       position="256,256"
       orientation="1,0"
       id="guide2378"
       inkscape:locked="false" />
    <sodipodi:guide
       position="270,252"
       orientation="0,-1"
       id="guide2380"
       inkscape:locked="false" />
  </sodipodi:namedview>
  <defs
     id="defs182" />
  <g
     inkscape:groupmode="layer"
     id="layer2"
     inkscape:label="FG"
     style="fill:#ffffff">
    <circle
       style="fill:#ffffff;fill-opacity:1;fill-rule:evenodd;stroke-width:17.2942;stroke-linecap:round;stroke-linejoin:round;paint-order:markers stroke fill"
       id="path2032"
       cx="255.99998"
       cy="256"
       r="44.000015" />
    <path
       id="path2032-7"
       style="fill:#ffffff;fill-opacity:1;fill-rule:evenodd;stroke-width:33.8293;stroke-linecap:round;stroke-linejoin:round;paint-order:markers stroke fill"
       d="M 256 36 C 239.38002 36 226 49.380017 226 66 L 226 96 C 226 96 223.97116 106.64684 221 111 C 219.02629 113.89176 214.42634 117.2904 211.5293 119.28906 A 144.00002 144.00002 0 0 0 190.4668 128.13281 C 186.83185 128.9981 181.06202 130.13836 177.51172 129.42773 C 172.43765 128.41213 164.07617 121.65039 164.07617 121.65039 L 142.86328 100.43555 C 131.11117 88.683441 112.18961 88.683447 100.4375 100.43555 C 88.685395 112.18765 88.685401 131.11117 100.4375 142.86328 L 121.65039 164.07617 C 121.65039 164.07617 127.74348 173.03969 128.7207 178.21875 C 129.38225 181.72481 128.48552 187.55498 127.84766 190.98828 A 144.00002 144.00002 0 0 0 118.99219 212.32617 C 117.00336 215.51692 113.89131 220.07309 111 222 C 106.69394 224.86977 96 226 96 226 L 66 226 C 49.380017 226 36 239.38002 36 256 C 36 272.61998 49.380017 286 66 286 L 96 286 C 96 286 106.64684 288.02884 111 291 C 113.89176 292.97371 117.2904 297.57366 119.28906 300.4707 A 144.00002 144.00002 0 0 0 128.13281 321.5332 C 128.99813 325.16804 130.13843 330.9376 129.42773 334.48828 C 128.41213 339.56236 121.65039 347.92383 121.65039 347.92383 L 100.43555 369.13672 C 88.68344 380.88883 88.68344 399.81235 100.43555 411.56445 C 112.18765 423.31655 131.11118 423.31655 142.86328 411.56445 L 164.07617 390.34961 C 164.07617 390.34961 173.03969 384.25652 178.21875 383.2793 C 181.72481 382.61775 187.55499 383.51448 190.98828 384.15234 A 144.00002 144.00002 0 0 0 212.32617 393.00781 C 215.51692 394.99664 220.07309 398.10869 222 401 C 224.86977 405.30606 226 416 226 416 L 226 446 C 226 462.61998 239.38002 476 256 476 C 272.61998 476 286 462.61998 286 446 L 286 416 C 286 416 288.02884 405.35316 291 401 C 292.97371 398.10824 297.57366 394.7096 300.4707 392.71094 A 144.00002 144.00002 0 0 0 321.5332 383.86719 C 325.16804 383.00187 330.9376 381.86157 334.48828 382.57227 C 339.56235 383.58787 347.92383 390.34961 347.92383 390.34961 L 369.13672 411.56445 C 380.88882 423.31655 399.81235 423.31655 411.56445 411.56445 C 423.31656 399.81235 423.31656 380.88883 411.56445 369.13672 L 390.34961 347.92383 C 390.34961 347.92383 384.25652 338.96032 383.2793 333.78125 C 382.61775 330.2752 383.51448 324.44502 384.15234 321.01172 A 144.00002 144.00002 0 0 0 393.00781 299.67383 C 394.99664 296.48308 398.10869 291.92691 401 290 C 405.30606 287.13023 416 286 416 286 L 446 286 C 462.61998 286 476 272.61998 476 256 C 476 239.38002 462.61998 226 446 226 L 416 226 C 416 226 405.35316 223.97116 401 221 C 398.10824 219.02629 394.7096 214.42634 392.71094 211.5293 A 144.00002 144.00002 0 0 0 383.86719 190.4668 C 383.0019 186.83185 381.86165 181.06202 382.57227 177.51172 C 383.58788 172.43765 390.34961 164.07617 390.34961 164.07617 L 411.56445 142.86328 C 423.31657 131.11118 423.31655 112.18961 411.56445 100.4375 C 399.81235 88.685395 380.88883 88.685399 369.13672 100.4375 L 347.92383 121.65039 C 347.92383 121.65039 338.96032 127.74348 333.78125 128.7207 C 330.2752 129.38225 324.44502 128.48552 321.01172 127.84766 A 144.00002 144.00002 0 0 0 299.67383 118.99219 C 296.48308 117.00336 291.92691 113.89131 290 111 C 287.13023 106.69394 286 96 286 96 L 286 66 C 286 49.380017 272.61998 36 256 36 z M 256 169.93164 A 86.068982 86.068982 0 0 1 342.06836 256 A 86.068982 86.068982 0 0 1 256 342.06836 A 86.068982 86.068982 0 0 1 169.93164 256 A 86.068982 86.068982 0 0 1 256 169.93164 z " />
  </g>
</svg>
