<?xml version="1.0" encoding="UTF-8" standalone="no"?>
<!-- Created with Inkscape (http://www.inkscape.org/) -->

<svg
   width="512.0px"
   height="512.0px"
   viewBox="0 0 512.0 512.0"
   version="1.1"
   id="SVGRoot"
   sodipodi:docname="EraseIcon.svg"
   xml:space="preserve"
   inkscape:version="1.2.2 (732a01da63, 2022-12-09)"
   xmlns:inkscape="http://www.inkscape.org/namespaces/inkscape"
   xmlns:sodipodi="http://sodipodi.sourceforge.net/DTD/sodipodi-0.dtd"
   xmlns="http://www.w3.org/2000/svg"
   xmlns:svg="http://www.w3.org/2000/svg"><sodipodi:namedview
     id="namedview2634"
     pagecolor="#ffffff"
     bordercolor="#000000"
     borderopacity="0.25"
     inkscape:showpageshadow="2"
     inkscape:pageopacity="0.0"
     inkscape:pagecheckerboard="0"
     inkscape:deskcolor="#d1d1d1"
     inkscape:document-units="px"
     showgrid="true"
     inkscape:zoom="1.4142136"
     inkscape:cx="185.96908"
     inkscape:cy="260.9224"
     inkscape:window-width="1920"
     inkscape:window-height="1009"
     inkscape:window-x="-8"
     inkscape:window-y="-8"
     inkscape:window-maximized="1"
     inkscape:current-layer="layer3"
     showguides="true"><inkscape:grid
       type="xygrid"
       id="grid2757" /><sodipodi:guide
       position="0,512"
       orientation="0.70710678,0.70710678"
       id="guide3130"
       inkscape:locked="false" /><sodipodi:guide
       position="0,0"
       orientation="0.70710678,-0.70710678"
       id="guide3132"
       inkscape:locked="false" /><sodipodi:guide
       position="256,256"
       orientation="1,0"
       id="guide3134"
       inkscape:locked="false" /><sodipodi:guide
       position="256,256"
       orientation="0,-1"
       id="guide3136"
       inkscape:locked="false" /><sodipodi:guide
       position="165,432"
       orientation="0.70710678,-0.70710678"
       id="guide3218"
       inkscape:locked="false" /></sodipodi:namedview><defs
     id="defs2629"><inkscape:path-effect
       effect="mirror_symmetry"
       start_point="332.99999,-52.999996"
       end_point="332.99999,459"
       center_point="332.99999,203"
       id="path-effect3333"
       is_visible="true"
       lpeversion="1.2"
       lpesatellites=""
       mode="vertical"
       discard_orig_path="false"
       fuse_paths="false"
       oposite_fuse="false"
       split_items="false"
       split_open="false"
       link_styles="false" /><inkscape:path-effect
       effect="mirror_symmetry"
       start_point="389,10"
       end_point="389,65"
       center_point="389,37.5"
       id="path-effect3307"
       is_visible="true"
       lpeversion="1.2"
       lpesatellites=""
       mode="vertical"
       discard_orig_path="false"
       fuse_paths="false"
       oposite_fuse="false"
       split_items="false"
       split_open="false"
       link_styles="false" /><inkscape:path-effect
       effect="mirror_symmetry"
       start_point="382.3097,106.54694"
       end_point="382.3097,326.54694"
       center_point="382.3097,216.54694"
       id="path-effect3258"
       is_visible="true"
       lpeversion="1.2"
       lpesatellites=""
       mode="vertical"
       discard_orig_path="false"
       fuse_paths="false"
       oposite_fuse="false"
       split_items="false"
       split_open="false"
       link_styles="false" /><inkscape:path-effect
       effect="mirror_symmetry"
       start_point="450,60.060716"
       end_point="450,479.99983"
       center_point="450,270.03027"
       id="path-effect3226"
       is_visible="true"
       lpeversion="1.2"
       lpesatellites=""
       mode="vertical"
       discard_orig_path="false"
       fuse_paths="false"
       oposite_fuse="true"
       split_items="true"
       split_open="false"
       link_styles="false" /><inkscape:path-effect
       effect="mirror_symmetry"
       start_point="450,60.060547"
       end_point="450,480"
       center_point="450,270.03027"
       id="path-effect3220"
       is_visible="true"
       lpeversion="1.2"
       lpesatellites=""
       mode="vertical"
       discard_orig_path="false"
       fuse_paths="true"
       oposite_fuse="false"
       split_items="false"
       split_open="false"
       link_styles="false" /><inkscape:path-effect
       effect="mirror_symmetry"
       start_point="450,60.060547"
       end_point="450,480"
       center_point="450,270.03027"
       id="path-effect3214"
       is_visible="true"
       lpeversion="1.2"
       lpesatellites=""
       mode="vertical"
       discard_orig_path="true"
       fuse_paths="true"
       oposite_fuse="true"
       split_items="false"
       split_open="false"
       link_styles="false" /><inkscape:path-effect
       effect="mirror_symmetry"
       start_point="256,0"
       end_point="256,512"
       center_point="320,256"
       id="path-effect3159"
       is_visible="true"
       lpeversion="1.2"
       lpesatellites=""
       mode="vertical"
       discard_orig_path="false"
       fuse_paths="true"
       oposite_fuse="true"
       split_items="false"
       split_open="false"
       link_styles="false" /><inkscape:path-effect
       effect="mirror_symmetry"
       start_point="154.64243,256"
       end_point="357.35759,420"
       center_point="357.35759,256"
       id="path-effect3152"
       is_visible="true"
       lpeversion="1.2"
       lpesatellites=""
       mode="free"
       discard_orig_path="false"
       fuse_paths="false"
       oposite_fuse="false"
       split_items="false"
       split_open="false"
       link_styles="false" /><inkscape:path-effect
       effect="mirror_symmetry"
       start_point="256,0"
       end_point="256,512"
       center_point="320,256"
       id="path-effect3159-6"
       is_visible="true"
       lpeversion="1.2"
       lpesatellites=""
       mode="vertical"
       discard_orig_path="false"
       fuse_paths="true"
       oposite_fuse="true"
       split_items="false"
       split_open="false"
       link_styles="false" /></defs><g
     inkscape:groupmode="layer"
     id="layer3"
     inkscape:label="FG"
     style="fill:#ffffff"
     transform="translate(0,17.999997)"><path
       id="rect3156"
       style="opacity:1;fill-rule:evenodd;stroke-width:470.857;stroke-linecap:round;stroke-linejoin:round;paint-order:markers stroke fill"
       d="M 137.31836 51.680866 C 105.01418 52.457462 77.573007 59.677957 69.125 83.025405 C 66.386833 90.767656 67.000754 99.918886 67.689453 109.55639 L 108.70898 452.48065 C 112 467.88862 128.00002 479.65511 142.18359 479.99983 L 253 480.68718 L 253 480.72479 L 256 480.70599 L 259 480.72479 L 259 480.68718 L 369.81641 479.99983 C 383.99998 479.65511 400 467.88862 403.29102 452.48065 L 444.31055 109.55639 C 444.99925 99.918886 445.61317 90.767656 442.875 83.025405 C 423.56527 29.659809 305.02276 60.550642 256 60.06072 C 228.4247 60.336301 178.8523 50.682385 137.31836 51.680866 z M 132.81445 82.803948 L 256 82.803948 L 379.18555 82.803948 C 408.99951 83.873627 414.99989 88.153273 412.89844 114.93612 L 372.62109 430.47074 C 369.99949 441.14763 359.99979 450.77351 351.75195 451.12057 L 256 451.71391 L 160.24805 451.12057 C 152.00021 450.77351 142.00051 441.14763 139.37891 430.47074 L 99.101562 114.93612 C 97.000115 88.153273 103.00049 83.873627 132.81445 82.803948 z "
       transform="matrix(1,0,0,0.9348593,0,17.589962)" /><path
       id="rect3216"
       style="opacity:1;fill-rule:evenodd;stroke-width:17.5411;stroke-linecap:round;stroke-linejoin:round;paint-order:markers stroke fill"
       d="M 198 -0.999997 C 167.70837 -0.999997 143.14153 25.987854 143.00586 59.000003 L 172 59.000003 L 172 59.27344 C 172 44.211144 183.19289 32.000003 197 32.000003 C 197 32.000008 197.66722 31.964298 198 32.000003 L 314 32.000003 C 314.33278 31.964298 315 32.000008 315 32.000003 C 328.80711 32.000003 340 44.211144 340 59.27344 L 340 59.000003 L 368.99414 59.000003 C 368.85847 25.987854 344.29163 -0.999997 314 -0.999997 L 198 -0.999997 z M 368.99414 59.000003 C 368.99452 59.091547 369 59.181805 369 59.27344 L 369 59.000003 L 368.99414 59.000003 z M 369 59.27344 L 340 59.27344 L 340 65.000003 L 172 65.000003 L 172 59.27344 L 143 59.27344 L 143 65.000003 L 37 65.000003 C 28.690008 65.000003 22 71.690011 22 80.000003 C 22 88.309995 28.690008 95.000003 37 95.000003 L 475 95.000003 C 483.30999 95.000003 490 88.309995 490 80.000003 C 490 71.690011 483.30999 65.000003 475 65.000003 L 369 65.000003 L 369 59.27344 z M 143 59.27344 C 143 59.181805 143.00548 59.091547 143.00586 59.000003 L 143 59.000003 L 143 59.27344 z " /><path
       id="rect3234"
       style="opacity:1;fill-rule:evenodd;stroke-width:18.3333;stroke-linecap:round;stroke-linejoin:round;paint-order:markers stroke fill"
       d="M 252.60938 150 C 245.78184 150 240.28516 155.4967 240.28516 162.32422 L 240.28516 357.67578 C 240.28516 364.50331 245.78184 370 252.60938 370 L 259.39062 370 C 266.21815 370 271.71484 364.50331 271.71484 357.67578 L 271.71484 162.32422 C 271.71484 155.4967 266.21815 150 259.39062 150 L 252.60938 150 z M 167.86328 151.95899 C 167.04526 151.89927 166.20974 151.92038 165.36328 152.0293 L 158.63672 152.89453 C 151.86501 153.76588 147.11498 159.91776 147.98633 166.68946 L 172.91797 360.44532 C 173.78931 367.21701 179.94314 371.96705 186.71484 371.09571 L 193.43945 370.23047 C 200.21115 369.35913 204.96118 363.20529 204.08984 356.4336 L 179.1582 162.67969 C 178.39578 156.75445 173.58944 152.37704 167.86328 151.95899 z M 344.13672 151.95899 C 338.41056 152.37704 333.60422 156.75445 332.8418 162.67969 L 307.91016 356.4336 C 307.03881 363.2053 311.78884 369.35913 318.56055 370.23047 L 325.28516 371.09571 C 332.05686 371.96705 338.21069 367.21702 339.08203 360.44532 L 364.01367 166.68946 C 364.88501 159.91775 360.13498 153.76588 353.36328 152.89453 L 346.63672 152.0293 C 345.79026 151.92038 344.95474 151.89927 344.13672 151.95899 z " /></g></svg>
