<?xml version="1.0" encoding="UTF-8" standalone="no"?>
<!-- Created with Inkscape (http://www.inkscape.org/) -->

<svg
   width="512.0px"
   height="512.0px"
   viewBox="0 0 512.0 512.0"
   version="1.1"
   id="SVGRoot"
   sodipodi:docname="recentericonnodot.svg"
   inkscape:version="1.2.2 (732a01da63, 2022-12-09)"
   inkscape:export-filename="recentericonnodot.png"
   inkscape:export-xdpi="96"
   inkscape:export-ydpi="96"
   xmlns:inkscape="http://www.inkscape.org/namespaces/inkscape"
   xmlns:sodipodi="http://sodipodi.sourceforge.net/DTD/sodipodi-0.dtd"
   xmlns="http://www.w3.org/2000/svg"
   xmlns:svg="http://www.w3.org/2000/svg">
  <sodipodi:namedview
     id="namedview311"
     pagecolor="#ffffff"
     bordercolor="#000000"
     borderopacity="0.25"
     inkscape:showpageshadow="2"
     inkscape:pageopacity="0.0"
     inkscape:pagecheckerboard="0"
     inkscape:deskcolor="#d1d1d1"
     inkscape:document-units="px"
     showgrid="true"
     inkscape:zoom="1.6819304"
     inkscape:cx="263.98238"
     inkscape:cy="237.82197"
     inkscape:window-width="1920"
     inkscape:window-height="1009"
     inkscape:window-x="-8"
     inkscape:window-y="-8"
     inkscape:window-maximized="1"
     inkscape:current-layer="layer1"
     showguides="true">
    <inkscape:grid
       type="xygrid"
       id="grid434" />
    <sodipodi:guide
       position="0,512"
       orientation="0.70710678,0.70710678"
       id="guide441"
       inkscape:locked="false" />
    <sodipodi:guide
       position="0,0"
       orientation="-0.70710678,0.70710678"
       id="guide504"
       inkscape:locked="false" />
    <sodipodi:guide
       position="256,256"
       orientation="1,0"
       id="guide506"
       inkscape:locked="false" />
    <sodipodi:guide
       position="256,256"
       orientation="0,-1"
       id="guide508"
       inkscape:locked="false" />
  </sodipodi:namedview>
  <defs
     id="defs306">
    <inkscape:path-effect
       effect="offset"
       id="path-effect2503"
       is_visible="true"
       lpeversion="1.2"
       linejoin_type="miter"
       unit="mm"
       offset="1"
       miter_limit="4"
       attempt_force_join="false"
       update_on_knot_move="true" />
    <inkscape:path-effect
       effect="offset"
       id="path-effect2501"
       is_visible="true"
       lpeversion="1.2"
       linejoin_type="miter"
       unit="mm"
       offset="1"
       miter_limit="4"
       attempt_force_join="false"
       update_on_knot_move="true" />
    <inkscape:path-effect
       effect="powerstroke"
       id="path-effect2495"
       is_visible="true"
       lpeversion="1"
       offset_points="4.5,1.2626899"
       not_jump="false"
       sort_points="false"
       interpolator_type="CentripetalCatmullRom"
       interpolator_beta="0.2"
       start_linecap_type="zerowidth"
       linejoin_type="round"
       miter_limit="4"
       scale_width="1"
       end_linecap_type="zerowidth" />
    <inkscape:path-effect
       effect="fillet_chamfer"
       id="path-effect2493"
       is_visible="true"
       lpeversion="1"
       nodesatellites_param="F,0,0,1,0,7,0,1 @ F,0,0,1,0,7,0,1 @ F,0,0,1,0,7,0,1 @ F,0,0,1,0,7,0,1 @ F,0,0,1,0,7,0,1 @ F,0,0,1,0,7,0,1 @ F,0,0,1,0,7,0,1 @ F,0,0,1,0,7,0,1 @ F,0,0,1,0,7,0,1"
       unit="px"
       method="auto"
       mode="F"
       radius="7"
       chamfer_steps="1"
       flexible="false"
       use_knot_distance="true"
       apply_no_radius="true"
       apply_with_radius="true"
       only_selected="false"
       hide_knots="false" />
    <inkscape:path-effect
       effect="ruler"
       id="path-effect2491"
       is_visible="true"
       lpeversion="1"
       unit="px"
       mark_distance="20"
       mark_length="14"
       minor_mark_length="7"
       major_mark_steps="5"
       shift="0"
       offset="0"
       mark_dir="left"
       border_marks="both" />
    <inkscape:path-effect
       effect="mirror_symmetry"
       start_point="460.97741,26.263672"
       end_point="460.97741,197.62305"
       center_point="460.97741,111.94336"
       id="path-effect2480"
       is_visible="true"
       lpeversion="1.2"
       lpesatellites=""
       mode="horizontal"
       discard_orig_path="false"
       fuse_paths="false"
       oposite_fuse="false"
       split_items="false"
       split_open="false"
       link_styles="false" />
    <inkscape:path-effect
       effect="mirror_symmetry"
       start_point="405,113.0374"
       end_point="405,215"
       center_point="405,164.0187"
       id="path-effect2478"
       is_visible="true"
       lpeversion="1.2"
       lpesatellites=""
       mode="horizontal"
       discard_orig_path="false"
       fuse_paths="false"
       oposite_fuse="false"
       split_items="false"
       split_open="false"
       link_styles="false" />
    <inkscape:path-effect
       effect="mirror_symmetry"
       start_point="405,113.0374"
       end_point="405,215"
       center_point="405,164.0187"
       id="path-effect2476"
       is_visible="true"
       lpeversion="1.2"
       lpesatellites=""
       mode="vertical"
       discard_orig_path="false"
       fuse_paths="false"
       oposite_fuse="false"
       split_items="false"
       split_open="false"
       link_styles="false" />
    <inkscape:path-effect
       effect="mirror_symmetry"
       start_point="460.97741,26.263672"
       end_point="460.97741,197.62305"
       center_point="460.97741,111.94336"
       id="path-effect2474"
       is_visible="true"
       lpeversion="1.2"
       lpesatellites=""
       mode="vertical"
       discard_orig_path="false"
       fuse_paths="false"
       oposite_fuse="false"
       split_items="false"
       split_open="false"
       link_styles="false" />
    <inkscape:path-effect
       effect="fill_between_many"
       method="bsplinespiro"
       linkedpaths="#path717-7,0,1"
       id="path-effect2497" />
  </defs>
  <g
     inkscape:label="Layer 1"
     inkscape:groupmode="layer"
     id="layer1">
    <path
       id="path717-7"
       style="fill:#ffffff;fill-opacity:1;fill-rule:nonzero;stroke:none;stroke-width:2.52538;stroke-linecap:round;stroke-linejoin:round;paint-order:markers stroke fill"
       d="m 460.02734,4.9453125 c -7.74382,-7.718e-4 -12.10059,6.7260345 -14.0625,12.6406255 l -0.0547,0.166015 -0.0391,0.169922 C 432.22713,76.739901 354.70893,151.95421 326.82227,173.51562 l 0.16015,-0.11718 c -5.02546,3.4808 -8.38253,7.09157 -8.38476,13.60156 -4e-4,7.97364 6.4287,14.40274 14.40234,14.40234 h 0.01 0.0117 c 0.20088,-0.001 0.39137,-0.0863 0.5918,-0.0957 l 0.66016,2.07422 4.26172,-3.22461 c 0.0586,-0.0444 0.0976,-0.0754 0.12695,-0.0977 l -0.18945,0.13477 C 394.14974,163.1593 464.2503,55.998642 472.26172,23.951172 l 0.0234,-0.08789 0.0176,-0.08789 C 474.52492,12.635721 468.62847,5.2043424 460.14258,4.9472656 l -0.0586,-0.00195 z m -408.05468,0 c 7.74382,-7.718e-4 12.10059,6.7260345 14.0625,12.6406255 l 0.05468,0.166015 0.03907,0.169922 C 79.77287,76.739901 157.29107,151.95421 185.17773,173.51562 l -0.16015,-0.11718 c 5.02546,3.4808 8.38253,7.09157 8.38476,13.60156 4e-4,7.97364 -6.4287,14.40274 -14.40234,14.40234 h -0.01 -0.0117 c -0.20088,-0.001 -0.39137,-0.0863 -0.5918,-0.0957 l -0.66016,2.07422 -4.26172,-3.22461 c -0.0586,-0.0444 -0.0976,-0.0754 -0.12695,-0.0977 l 0.18945,0.13477 C 117.85026,163.1593 47.7497,55.998642 39.73828,23.951172 l -0.02344,-0.08789 -0.01757,-0.08789 C 37.47508,12.635721 43.37153,5.2043424 51.85742,4.9472656 l 0.0586,-0.00195 z M 460.02734,507.05469 c -7.74382,7.7e-4 -12.10059,-6.72604 -14.0625,-12.64063 l -0.0547,-0.16601 -0.0391,-0.16993 C 432.22713,435.2601 354.70893,360.04579 326.82227,338.48438 l 0.16015,0.11718 c -5.02546,-3.4808 -8.38253,-7.09157 -8.38476,-13.60156 -4e-4,-7.97364 6.4287,-14.40274 14.40234,-14.40234 h 0.01 0.0117 c 0.20088,0.001 0.39137,0.0863 0.5918,0.0957 l 0.66016,-2.07422 4.26172,3.22461 c 0.0586,0.0444 0.0976,0.0754 0.12695,0.0977 l -0.18945,-0.13477 c 55.67708,37.03406 125.77764,144.19472 133.78906,176.24219 l 0.0234,0.0879 0.0176,0.0879 c 2.22219,11.13967 -3.67426,18.57105 -12.16015,18.82812 l -0.0586,0.002 z m -408.05468,0 c 7.74382,7.7e-4 12.10059,-6.72604 14.0625,-12.64063 l 0.05468,-0.16601 0.03907,-0.16993 C 79.77287,435.2601 157.29107,360.04579 185.17773,338.48438 l -0.16015,0.11718 c 5.02546,-3.4808 8.38253,-7.09157 8.38476,-13.60156 4e-4,-7.97364 -6.4287,-14.40274 -14.40234,-14.40234 h -0.01 -0.0117 c -0.20088,0.001 -0.39137,0.0863 -0.5918,0.0957 l -0.66016,-2.07422 -4.26172,3.22461 c -0.0586,0.0444 -0.0976,0.0754 -0.12695,0.0977 l 0.18945,-0.13477 C 117.85026,348.8407 47.7497,456.00136 39.73828,488.04883 l -0.02344,0.0879 -0.01757,0.0879 c -2.22219,11.13967 3.67426,18.57105 12.16015,18.82812 l 0.0586,0.002 z"
       sodipodi:nodetypes="cccccccccc"
       inkscape:original-d="m 460.02649,8.7243019 c -5.37776,-5.36e-4 -8.76412,4.8968341 -10.474,10.0516381 -13.91713,59.995613 -92.18998,135.90468 -120.41676,157.72906 -4.50665,3.12146 -6.75717,5.79398 -6.75878,10.495 -2.9e-4,5.86707 4.75598,10.62334 10.62305,10.62305 1.10067,-0.006 2.1938,-0.18214 3.24023,-0.52344 l 0.0137,0.043 c 0.0436,-0.033 0.0815,-0.0627 0.125,-0.0957 55.07951,-36.63657 124.50368,-143.161389 132.21592,-174.012061 1.84298,-9.238723 -2.8107,-14.1361211 -8.56836,-14.3105471 z"
       inkscape:path-effect="#path-effect2501;#path-effect2474;#path-effect2480"
       inkscape:linked-fill="path2499"
       class="UnoptimicedTransforms" />
    <path
       id="path2370"
       style="fill:#ffffff;fill-opacity:1;fill-rule:evenodd;stroke:none;stroke-width:8.07;stroke-linecap:round;stroke-linejoin:round;paint-order:markers stroke fill;stroke-dasharray:none"
       d="m 321.14258,109.26562 c -5.99207,0.22354 -11.41296,4.69355 -12.67969,10.60157 -0.58662,2.68725 -0.32642,5.47393 -0.43164,7.58398 l -0.004,0.0703 v 0.0723 c -0.15873,13.10406 -0.35407,26.38396 0.55469,39.62891 l 0.002,0.0195 0.002,0.0195 c 0.56711,7.17611 1.42136,14.77749 4.01758,21.99414 1.9557,5.4347 5.31841,10.68837 10.29687,14.29883 6.17273,4.55831 13.56428,6.68656 20.31445,8.27148 l 0.008,0.002 0.008,0.002 c 2.94448,0.67818 6.13413,1.2896 9.18164,1.78906 3.35725,0.56073 6.73064,1.03809 10.03711,1.48438 10.39686,1.38467 20.66024,2.2174 31.61133,2.60546 l -0.23828,-0.0156 c 4.97622,0.49261 10.60685,-2.89485 12.87109,-7.1543 2.20084,-4.14018 2.46236,-10.21243 -1.32227,-14.45117 -2.70436,-3.16364 -6.73626,-4.69684 -10.5957,-4.68945 -11.07104,-0.16335 -21.76542,0.42977 -32.23242,-1.64844 -6.69717,-1.32971 -13.0104,-2.63859 -17.85938,-6.1875 -4.40854,-3.22656 -7.94563,-8.06747 -10.00781,-13.2832 -2.24485,-5.67777 -1.89013,-12.27141 -1.9375,-19.33008 -0.0622,-9.26795 2.82726,-18.57175 2.67774,-28.86328 l -0.002,-0.0957 -0.006,-0.0977 c -0.39517,-6.0273 -5.08835,-11.32203 -11.0664,-12.38086 -1.09326,-0.21247 -2.16968,-0.27664 -3.17383,-0.2461 h -0.0117 z m 3.19922,0.2461 c 0.0188,0.004 0.0358,1.5e-4 0.0547,0.004 l -0.0918,-0.0176 c 0.0132,0.002 0.0239,0.0113 0.0371,0.0137 z m 81.02929,86.57617 c 0.0165,0.0193 0.0383,0.0314 0.0547,0.0508 l -0.0801,-0.0918 c 0.0113,0.0126 0.0141,0.0284 0.0254,0.041 z M 190.85742,109.26562 c 5.99207,0.22354 11.41296,4.69355 12.67969,10.60157 0.58662,2.68725 0.32642,5.47393 0.43164,7.58398 l 0.004,0.0703 v 0.0723 c 0.15873,13.10406 0.35407,26.38396 -0.55469,39.62891 l -0.002,0.0195 -0.002,0.0195 c -0.56711,7.17611 -1.42136,14.77749 -4.01758,21.99414 -1.9557,5.4347 -5.31841,10.68837 -10.29687,14.29883 -6.17273,4.55831 -13.56428,6.68656 -20.31445,8.27148 l -0.008,0.002 -0.008,0.002 c -2.94448,0.67818 -6.13413,1.2896 -9.18164,1.78906 -3.35725,0.56073 -6.73064,1.03809 -10.03711,1.48438 -10.39686,1.38467 -20.66024,2.2174 -31.61133,2.60546 l 0.23828,-0.0156 c -4.97622,0.49261 -10.60685,-2.89485 -12.87109,-7.1543 -2.20084,-4.14018 -2.46236,-10.21243 1.32227,-14.45117 2.70436,-3.16364 6.73626,-4.69684 10.5957,-4.68945 11.07104,-0.16335 21.76542,0.42977 32.23242,-1.64844 6.69717,-1.32971 13.0104,-2.63859 17.85938,-6.1875 4.40854,-3.22656 7.94563,-8.06747 10.00781,-13.2832 2.24485,-5.67777 1.89013,-12.27141 1.9375,-19.33008 0.0622,-9.26795 -2.82726,-18.57175 -2.67774,-28.86328 l 0.002,-0.0957 0.006,-0.0977 c 0.39517,-6.0273 5.08835,-11.32203 11.0664,-12.38086 1.09326,-0.21247 2.16968,-0.27664 3.17383,-0.2461 h 0.0117 z m -3.19922,0.2461 c -0.0188,0.004 -0.0358,1.5e-4 -0.0547,0.004 l 0.0918,-0.0176 c -0.0132,0.002 -0.0239,0.0113 -0.0371,0.0137 z m -81.02929,86.57617 c -0.0165,0.0193 -0.0383,0.0314 -0.0547,0.0508 l 0.0801,-0.0918 c -0.0113,0.0126 -0.0142,0.0284 -0.0254,0.041 z m 214.51367,206.64649 c -5.99207,-0.22354 -11.41296,-4.69355 -12.67969,-10.60157 -0.58662,-2.68725 -0.32642,-5.47393 -0.43164,-7.58398 l -0.004,-0.0703 v -0.0723 c -0.15873,-13.10406 -0.35407,-26.38396 0.55469,-39.62891 l 0.002,-0.0195 0.002,-0.0195 c 0.56711,-7.17611 1.42136,-14.77749 4.01758,-21.99414 1.9557,-5.4347 5.31841,-10.68837 10.29687,-14.29883 6.17273,-4.55831 13.56428,-6.68656 20.31445,-8.27148 l 0.008,-0.002 0.008,-0.002 c 2.94448,-0.67818 6.13413,-1.2896 9.18164,-1.78906 3.35725,-0.56073 6.73064,-1.03809 10.03711,-1.48438 10.39686,-1.38467 20.66024,-2.2174 31.61133,-2.60546 l -0.23828,0.0156 c 4.97622,-0.49261 10.60685,2.89485 12.87109,7.1543 2.20084,4.14018 2.46236,10.21243 -1.32227,14.45117 -2.70436,3.16364 -6.73626,4.69684 -10.5957,4.68945 -11.07104,0.16335 -21.76542,-0.42977 -32.23242,1.64844 -6.69717,1.32971 -13.0104,2.63859 -17.85938,6.1875 -4.40854,3.22656 -7.94563,8.06747 -10.00781,13.2832 -2.24485,5.67777 -1.89013,12.27141 -1.9375,19.33008 -0.0622,9.26795 2.82726,18.57175 2.67774,28.86328 l -0.002,0.0957 -0.006,0.0976 c -0.39517,6.0273 -5.08835,11.32203 -11.0664,12.38086 -1.09326,0.21247 -2.16968,0.27664 -3.17383,0.2461 h -0.0117 z m 3.19922,-0.2461 c 0.0188,-0.004 0.0358,-1.5e-4 0.0547,-0.004 l -0.0918,0.0176 c 0.0132,-0.002 0.0239,-0.0113 0.0371,-0.0137 z m 81.02929,-86.57617 c 0.0165,-0.0193 0.0383,-0.0314 0.0547,-0.0508 l -0.0801,0.0918 c 0.0113,-0.0126 0.0141,-0.0284 0.0254,-0.041 z m -214.51367,86.82227 c 5.99207,-0.22354 11.41296,-4.69355 12.67969,-10.60157 0.58662,-2.68725 0.32642,-5.47393 0.43164,-7.58398 l 0.004,-0.0703 v -0.0723 c 0.15873,-13.10406 0.35407,-26.38396 -0.55469,-39.62891 l -0.002,-0.0195 -0.002,-0.0195 c -0.56711,-7.17611 -1.42136,-14.77749 -4.01758,-21.99414 -1.9557,-5.4347 -5.31841,-10.68837 -10.29687,-14.29883 -6.17273,-4.55831 -13.56428,-6.68656 -20.31445,-8.27148 l -0.008,-0.002 -0.008,-0.002 c -2.94448,-0.67818 -6.13413,-1.2896 -9.18164,-1.78906 -3.35725,-0.56073 -6.73064,-1.03809 -10.03711,-1.48438 -10.39686,-1.38467 -20.66024,-2.2174 -31.61133,-2.60546 l 0.23828,0.0156 c -4.97622,-0.49261 -10.60685,2.89485 -12.87109,7.1543 -2.20084,4.14018 -2.46236,10.21243 1.32227,14.45117 2.70436,3.16364 6.73626,4.69684 10.5957,4.68945 11.07104,0.16335 21.76542,-0.42977 32.23242,1.64844 6.69717,1.32971 13.0104,2.63859 17.85938,6.1875 4.40854,3.22656 7.94563,8.06747 10.00781,13.2832 2.24485,5.67777 1.89013,12.27141 1.9375,19.33008 0.0622,9.26795 -2.82726,18.57175 -2.67774,28.86328 l 0.002,0.0957 0.006,0.0976 c 0.39517,6.0273 5.08835,11.32203 11.0664,12.38086 1.09326,0.21247 2.16968,0.27664 3.17383,0.2461 h 0.0117 z m -3.19922,-0.2461 c -0.0188,-0.004 -0.0358,-1.5e-4 -0.0547,-0.004 l 0.0918,0.0176 c -0.0132,-0.002 -0.0239,-0.0113 -0.0371,-0.0137 z m -81.02929,-86.57617 c -0.0165,-0.0193 -0.0383,-0.0314 -0.0547,-0.0508 l 0.0801,0.0918 c -0.0113,-0.0126 -0.0142,-0.0284 -0.0254,-0.041 z"
       inkscape:original-d="m 321.28339,113.04328 c -4.28099,0.1597 -8.22801,3.41816 -9.12695,7.6211 -0.50193,2.28763 -0.23495,4.65112 -0.35076,6.97344 -0.15879,13.10886 -0.34927,26.23949 0.54874,39.32771 0.56091,7.09763 1.3831,14.27452 3.80656,21.01097 1.76011,4.89117 4.72129,9.45316 8.97005,12.52968 5.55236,4.10506 12.31068,6.08267 18.94663,7.64077 2.86267,0.65934 5.96847,1.25382 8.95822,1.7436 3.30381,0.5518 6.62675,1.02382 9.91157,1.46719 10.26266,1.3668 20.41083,2.18963 31.24756,2.57364 3.4625,0.34276 7.51541,-2.07057 9.16094,-5.16611 1.59924,-3.00848 1.77189,-7.31344 -0.81827,-10.18858 -1.89967,-2.24986 -4.84411,-3.40421 -7.75429,-3.39864 -11.00784,-0.16537 -22.18076,0.42309 -32.97743,-1.72058 -6.71195,-1.33265 -13.83259,-2.80218 -19.3546,-6.84367 -5.03782,-3.68712 -8.99505,-9.13744 -11.29046,-14.94308 -2.5508,-6.4516 -2.15492,-13.75852 -2.20147,-20.69592 -0.0648,-9.65278 2.82044,-18.92757 2.6765,-28.83503 -0.28265,-4.31109 -3.71157,-8.17526 -7.97714,-8.91666 -0.78077,-0.15547 -1.58086,-0.20401 -2.37571,-0.17983 z"
       inkscape:path-effect="#path-effect2503;#path-effect2476;#path-effect2478"
       class="UnoptimicedTransforms"
       sodipodi:nodetypes="ccccccccccaccaaaacccc" />
  </g>
</svg>
